HIERARCHY
ROOT Hips
{
	OFFSET 0.00000 0.00000 0.00000
	CHANNELS 6 Xposition Yposition Zposition Yrotation Zrotation Xrotation 
	JOINT Lumbar
	{
		OFFSET 0 0 0
		CHANNELS 3 Zrotation Xrotation Yrotation
		JOINT Neck
		{
			OFFSET 0.00 0.2701 0.00
			CHANNELS 3 Zrotation Xrotation Yrotation
			End Site
			{
				OFFSET 0.00 0.1379 0.00
			}
		}
		JOINT RightShoulder
		{
			OFFSET 0.0119 0.2289 0.1181
			CHANNELS 3 Zrotation Xrotation Yrotation
			JOINT RightElbow
			{
				OFFSET 0.00 -0.1475 0.00
				CHANNELS 2 Zrotation Yrotation
				JOINT RightWrist
				{
					OFFSET 0.00 -0.1605 0.00
					CHANNELS 2 Zrotation Xrotation
					End Site
					{
						OFFSET 0.0040 -0.1068 0.0006
					}
				}
			}
		}
		JOINT LeftShoulder
		{
			OFFSET 0.0119 0.2289 -0.1181
			CHANNELS 3 Zrotation Xrotation Yrotation
			JOINT LeftElbow
			{
				OFFSET 0.00 -0.1475 0.00
				CHANNELS 2 Zrotation Yrotation
				JOINT LeftWrist
				{
					OFFSET 0.00 -0.1605 0.00
					CHANNELS 2 Zrotation Xrotation
					End Site
					{
						OFFSET 0.0040 -0.1068 -0.0006
					}
				}
			}
		}
	}
	JOINT RightHip
	{
		OFFSET 0.0316 -0.0424 0.0458
		CHANNELS 3 Zrotation Xrotation Yrotation
		JOINT RightKnee
		{
			OFFSET 0.00 -0.2438 0.00
			CHANNELS 1 Zrotation
			JOINT RightAnkle
			{
				OFFSET 0.00 -0.2449 0.00
				CHANNELS 3 Zrotation Xrotation Yrotation
				End Site
				{
					OFFSET 0.1237 -0.0542 0.0051
				}
			}
		}
	}
	JOINT LeftHip
	{
		OFFSET 0.0316 -0.0424 -0.0458
		CHANNELS 3 Zrotation Xrotation Yrotation
		JOINT LeftKnee
		{
			OFFSET 0.00 -0.2438 0.00
			CHANNELS 1 Zrotation
			JOINT LeftAnkle
			{
				OFFSET 0.00 -0.2449 0.00
				CHANNELS 3 Zrotation Xrotation Yrotation
				End Site
				{
					OFFSET 0.1237 -0.0542 -0.0051
				}
			}
		}
	}
}
MOTION
Frames: 21
Frame Time: 0.02
-0.08058 -0.31037 -0.0685 -174.48146 -28.2407 11.77485 16.05438 -3.1616 7.69451 -4.69114 -6.67386 -2.11892 166.38691 -171.25707 -87.14685 134.3013 139.26379 -63.60748 -11.26085 63.84292 29.17959 -9.30374 116.5428 -80.38627 -4.84603 1.4674 39.74957 -11.36609 -3.17745 -138.8911 -5.4346 -2.06866 -3.18575 120.88358 8.71038 -1.22157 -128.62962 -5.94354 0.85132 2.63346
-0.08067 -0.31035 -0.06844 -174.52099 -27.60015 11.64803 15.34941 -3.08631 7.53003 -4.67283 -6.67664 -2.11895 166.38691 -171.25707 -87.14685 134.3013 139.27614 -63.60177 -11.26229 63.81014 29.15354 -9.27055 116.48835 -80.56677 -4.76397 1.54509 38.90582 -11.3072 -3.31188 -138.71314 -5.43452 -2.06945 -3.18577 120.14699 8.6673 -1.2311 -128.68877 -5.94266 0.84874 2.63247
-0.08078 -0.31033 -0.06837 -174.58969 -26.52884 11.44103 14.20934 -2.96395 7.29851 -4.64007 -6.67682 -2.11898 166.38691 -171.25707 -87.14685 134.3013 139.29174 -63.59583 -11.26725 63.79271 29.12365 -9.23965 116.42381 -80.52622 -4.77205 1.48019 37.50717 -11.21148 -3.54341 -138.42617 -5.43434 -2.07101 -3.18594 118.92072 8.60348 -1.24926 -128.78088 -5.94141 0.84402 2.63053
-0.08087 -0.31032 -0.0683 -174.64246 -25.69299 11.27671 13.30511 -2.86718 7.10436 -4.61293 -6.67765 -2.11901 166.38691 -171.25707 -87.14685 134.3013 139.30598 -63.59162 -11.2708 63.768 29.09669 -9.20788 116.36601 -80.59158 -4.73856 1.48481 36.4114 -11.13663 -3.72202 -138.19908 -5.43423 -2.07203 -3.18596 117.9632 8.55058 -1.26263 -128.85584 -5.94068 0.84081 2.62924
-0.08098 -0.3103 -0.06825 -174.70603 -24.70095 11.08804 12.25225 -2.75388 6.88288 -4.59002 -6.68054 -2.11904 166.38691 -171.25707 -87.14685 134.3013 139.32012 -63.5803 -11.27385 63.74594 29.06488 -9.17566 116.29874 -80.64225 -4.70495 1.47493 35.11575 -11.04535 -3.93485 -137.93075 -5.43402 -2.07384 -3.18633 116.823 8.49219 -1.27945 -128.93939 -5.93958 0.83652 2.6275
-0.08106 -0.31029 -0.06816 -174.75397 -23.93028 10.93053 11.40315 -2.66367 6.70209 -4.5545 -6.67868 -2.11906 166.38691 -171.25707 -87.14685 134.3013 139.33464 -63.58437 -11.27831 63.72059 29.04248 -9.14456 116.24911 -80.66784 -4.69408 1.4592 34.10275 -10.97906 -4.1001 -137.72223 -5.43399 -2.07421 -3.18603 115.94559 8.43955 -1.29137 -129.01293 -5.93771 0.83258 2.62594
-0.08109 -0.31032 -0.068 -174.75497 -23.8413 10.87506 11.19417 -2.64494 6.64518 -4.4912 -6.66337 -2.11907 166.38691 -171.25707 -87.14685 134.3013 139.35366 -63.625 -11.29019 63.6924 29.04355 -9.11917 116.24797 -80.6778 -4.72329 1.46345 33.96025 -10.99199 -4.11658 -137.69625 -5.43452 -2.0702 -3.18373 115.87078 8.41297 -1.28577 -129.05314 -5.9397 0.8354 2.62703
-0.08109 -0.31036 -0.0678 -174.73882 -23.99341 10.85379 11.2075 -2.65146 6.63199 -4.41512 -6.64357 -2.11907 166.38691 -171.25707 -87.14685 134.3013 139.37122 -63.68271 -11.30257 63.65774 29.05471 -9.09424 116.26504 -80.66898 -4.77275 1.46573 34.12595 -11.03099 -4.08139 -137.73524 -5.43524 -2.06475 -3.18077 116.08188 8.39169 -1.27534 -129.08195 -5.93512 0.83319 2.62632
-0.0811 -0.31039 -0.06761 -174.72835 -24.05733 10.81924 11.13727 -2.64879 6.6018 -4.34248 -6.62642 -2.11907 166.38691 -171.25707 -87.14685 134.3013 139.38788 -63.73583 -11.31185 63.6203 29.06357 -9.06696 116.27606 -80.66796 -4.81379 1.4674 34.17969 -11.05711 -4.06585 -137.75046 -5.43588 -2.0601 -3.17822 116.18933 8.3648 -1.26828 -129.1144 -5.93567 0.83547 2.62726
-0.08113 -0.31043 -0.06744 -174.72749 -24.02046 10.77344 10.98271 -2.63521 6.5577 -4.27906 -6.60649 -2.11907 166.38692 -171.25707 -87.14685 134.3013 139.41515 -63.77342 -11.33337 63.61044 29.06302 -9.0487 116.279 -80.6628 -4.85474 1.47069 34.10132 -11.08627 -4.06877 -137.73873 -5.4365 -2.05486 -3.17526 116.17375 8.35149 -1.25632 -129.15401 -5.94649 0.84665 2.6314
-0.08111 -0.31047 -0.06722 -174.70258 -24.25103 10.7589 11.05676 -2.65051 6.55321 -4.19392 -6.59149 -2.11907 166.38691 -171.25707 -87.14685 134.30129 139.41503 -63.85008 -11.3295 63.53778 29.08408 -9.01187 116.3011 -80.66427 -4.89937 1.47181 34.37149 -11.11584 -4.02102 -137.79859 -5.43721 -2.05048 -3.17296 116.48273 8.31043 -1.25361 -129.17619 -5.91012 0.81521 2.62
-0.08094 -0.31053 -0.0669 -174.6117 -25.20878 10.83386 11.75666 -2.74364 6.65308 -4.04925 -6.58986 -2.11909 166.38689 -171.25705 -87.14683 134.30129 139.37679 -64.00861 -11.25851 63.32354 29.16608 -8.92335 116.38877 -80.69233 -4.95002 1.46923 35.59108 -11.13983 -3.83422 -138.05236 -5.43815 -2.04908 -3.17277 117.67103 8.19783 -1.27591 -129.1476 -5.96387 0.87807 2.64369
-0.08073 -0.3106 -0.06653 -174.49774 -26.42088 10.93726 12.67232 -2.86446 6.79063 -3.88372 -6.59371 -2.11911 166.38687 -171.25703 -87.14681 134.30128 139.3008 -64.2105 -11.1638 63.04026 29.26881 -8.81673 116.49113 -80.72801 -5.00299 1.46485 37.14219 -11.16363 -3.59984 -138.37416 -5.43918 -2.04854 -3.17323 119.16886 8.05458 -1.30851 -129.10274 -5.93755 0.86905 2.6409
-0.08054 -0.31067 -0.06618 -174.39669 -27.48701 11.02049 13.45879 -2.96999 6.90752 -3.72964 -6.59583 -2.11912 166.38685 -171.25703 -87.14679 134.30127 139.22188 -64.40616 -11.0748 62.76911 29.35962 -8.71793 116.5766 -80.75903 -5.054 1.46087 38.50297 -11.18788 -3.39458 -138.65746 -5.44014 -2.04742 -3.17329 120.49235 7.92308 -1.33676 -129.06872 -5.7941 0.74184 2.59484
-0.08033 -0.31074 -0.06585 -174.28491 -28.68828 11.13567 14.38273 -3.08759 7.0407 -3.56692 -6.59418 -2.11914 166.38682 -171.25699 -87.14676 134.30126 139.24118 -64.54329 -10.99721 62.58038 29.46133 -8.61864 116.70915 -80.79474 -5.10991 1.4587 40.0404 -11.21133 -3.15624 -138.97513 -5.44121 -2.04704 -3.1738 121.96671 7.80682 -1.36118 -129.0197 -6.26539 1.20962 2.76751
-0.08016 -0.31081 -0.06546 -174.19014 -29.66697 11.19038 15.07057 -3.18655 7.14849 -3.41726 -6.60222 -2.11915 166.3868 -171.25697 -87.14674 134.30125 139.03005 -64.8152 -10.90278 62.20194 29.54514 -8.51883 116.74271 -80.82219 -5.15549 1.45213 41.28624 -11.23623 -2.97575 -139.23632 -5.44207 -2.04533 -3.17352 123.19784 7.64412 -1.39896 -128.99831 -5.47895 0.47344 2.49675
-0.08008 -0.31094 -0.06493 -174.1486 -29.95432 11.07324 15.03756 -3.22522 7.17476 -3.31017 -6.63172 -2.11916 166.3868 -171.25706 -87.14674 134.30125 138.33993 -65.42276 -10.65611 61.33055 29.5743 -8.39941 116.53444 -80.82974 -5.17539 1.43533 41.63084 -11.26371 -2.97034 -139.32556 -5.44223 -2.03981 -3.17098 123.67007 7.42822 -1.44382 -129.05604 -0.88043 -4.02768 0.84718
-0.08004 -0.31107 -0.06433 -174.12486 -30.0103 10.89371 14.76162 -3.24458 7.17395 -3.21677 -6.67166 -2.11916 166.3868 -171.25679 -87.14675 134.30125 137.39407 -66.16784 -10.41145 60.26758 29.58468 -8.28491 116.21904 -80.82746 -5.18423 1.41334 41.67146 -11.29282 -3.02431 -139.35444 -5.44218 -2.03289 -3.16763 123.88707 7.15734 -1.50505 -129.14219 4.91503 -9.65864 -1.21963
-0.08 -0.31119 -0.06374 -174.09278 -30.18068 10.74125 14.6061 -3.27379 7.18732 -3.11623 -6.70927 -2.11916 166.38681 -171.25718 -87.14675 134.30125 136.46499 -66.86863 -10.24239 59.28379 29.60378 -8.18226 115.92999 -80.82732 -5.19553 1.39355 41.86006 -11.32197 -3.04897 -139.41117 -5.44227 -2.02657 -3.16463 124.22771 6.86304 -1.57901 -129.21641 9.92602 -14.46407 -2.98752
-0.07991 -0.31133 -0.06321 -174.06131 -30.32152 10.59527 14.41511 -3.29881 7.19588 -3.01874 -6.73635 -2.11916 166.38681 -171.25709 -87.14676 134.30125 135.9441 -67.49971 -9.76041 58.3328 29.62297 -8.01709 115.73717 -80.83927 -5.217 1.37679 42.02051 -11.34771 -3.08189 -139.4716 -5.44217 -2.02048 -3.16174 124.54915 6.75831 -1.57567 -129.28675 15.95125 -20.56401 -5.2099
-0.07992 -0.31143 -0.06255 -174.03263 -30.46499 10.42057 14.23853 -3.32842 7.2053 -2.91855 -6.78841 -2.11917 166.38681 -171.25587 -87.14676 134.30125 134.52571 -68.30098 -9.91726 57.26648 29.63707 -7.98658 115.31655 -80.82109 -5.21557 1.34946 42.16105 -11.38108 -3.11215 -139.50528 -5.44242 -2.01349 -3.15838 124.84328 6.26327 -1.7277 -129.37104 20.15216 -24.26704 -6.59428
